{
  "asset": {
    "version": "2.0",
    "generator": "UGC Renderer Lab glTF lit scene sample"
  },
  "scene": 0,
  "scenes": [
    {
      "name": "MainScene",
      "nodes": [
        0
      ]
    }
  ],
  "nodes": [
    {
      "name": "SceneRoot",
      "translation": [
        0.0,
        0.0,
        0.65
      ],
      "children": [
        1,
        2,
        3,
        4,
        5
      ]
    },
    {
      "name": "SingleSidedTriangleNode",
      "mesh": 0,
      "translation": [
        -1.05,
        0.12,
        0.0
      ],
      "rotation": [
        0.0,
        0.0,
        0.0,
        1.0
      ],
      "scale": [
        1.0,
        1.0,
        1.0
      ]
    },
    {
      "name": "CutoutCardANode",
      "mesh": 1,
      "translation": [
        0.0,
        0.02,
        0.08
      ],
      "rotation": [
        0.0,
        0.0,
        0.0,
        1.0
      ],
      "scale": [
        1.25,
        1.25,
        1.0
      ]
    },
    {
      "name": "CutoutCardBNode",
      "mesh": 1,
      "translation": [
        0.0,
        0.02,
        0.08
      ],
      "rotation": [
        0.0,
        0.707107,
        0.0,
        0.707107
      ],
      "scale": [
        1.25,
        1.25,
        1.0
      ]
    },
    {
      "name": "BlendBlueCardNode",
      "mesh": 2,
      "translation": [
        1.02,
        0.1,
        -0.16
      ],
      "rotation": [
        0.0,
        0.0,
        0.0,
        1.0
      ],
      "scale": [
        1.05,
        1.05,
        1.0
      ]
    },
    {
      "name": "BlendAmberCardNode",
      "mesh": 3,
      "translation": [
        1.12,
        -0.04,
        0.28
      ],
      "rotation": [
        0.0,
        0.0,
        0.0,
        1.0
      ],
      "scale": [
        1.05,
        1.05,
        1.0
      ]
    }
  ],
  "meshes": [
    {
      "name": "SingleSidedTriangleMesh",
      "primitives": [
        {
          "attributes": {
            "POSITION": 0,
            "NORMAL": 1,
            "TEXCOORD_0": 2
          },
          "indices": 6,
          "material": 0,
          "mode": 4
        }
      ]
    },
    {
      "name": "CutoutCardMesh",
      "primitives": [
        {
          "attributes": {
            "POSITION": 3,
            "NORMAL": 4,
            "TEXCOORD_0": 5
          },
          "indices": 7,
          "material": 1,
          "mode": 4
        }
      ]
    },
    {
      "name": "BlendBlueCardMesh",
      "primitives": [
        {
          "attributes": {
            "POSITION": 3,
            "NORMAL": 4,
            "TEXCOORD_0": 5
          },
          "indices": 7,
          "material": 2,
          "mode": 4
        }
      ]
    },
    {
      "name": "BlendAmberCardMesh",
      "primitives": [
        {
          "attributes": {
            "POSITION": 3,
            "NORMAL": 4,
            "TEXCOORD_0": 5
          },
          "indices": 7,
          "material": 3,
          "mode": 4
        }
      ]
    }
  ],
  "materials": [
    {
      "name": "CheckerMaterial",
      "pbrMetallicRoughness": {
        "baseColorFactor": [
          1.0,
          1.0,
          1.0,
          1.0
        ],
        "metallicFactor": 0.1,
        "roughnessFactor": 0.85,
        "metallicRoughnessTexture": {
          "index": 1,
          "texCoord": 0
        },
        "baseColorTexture": {
          "index": 0,
          "texCoord": 0
        }
      },
      "normalTexture": {
        "index": 4,
        "texCoord": 0,
        "scale": 0.65
      },
      "occlusionTexture": {
        "index": 2,
        "texCoord": 0,
        "strength": 0.7
      },
      "doubleSided": false
    },
    {
      "name": "CutoutStripeMaterial",
      "pbrMetallicRoughness": {
        "baseColorFactor": [
          1.0,
          1.0,
          1.0,
          1.0
        ],
        "metallicFactor": 0.95,
        "roughnessFactor": 0.8,
        "metallicRoughnessTexture": {
          "index": 1,
          "texCoord": 0
        },
        "baseColorTexture": {
          "index": 5,
          "texCoord": 0
        }
      },
      "normalTexture": {
        "index": 4,
        "texCoord": 0,
        "scale": 1.1
      },
      "occlusionTexture": {
        "index": 2,
        "texCoord": 0,
        "strength": 0.5
      },
      "emissiveTexture": {
        "index": 3,
        "texCoord": 0
      },
      "emissiveFactor": [
        0.75,
        0.35,
        0.15
      ],
      "alphaMode": "MASK",
      "alphaCutoff": 0.5,
      "doubleSided": true
    },
    {
      "name": "BlendBlueMaterial",
      "pbrMetallicRoughness": {
        "baseColorFactor": [
          0.55,
          0.86,
          1.0,
          0.82
        ],
        "metallicFactor": 0.0,
        "roughnessFactor": 0.3,
        "baseColorTexture": {
          "index": 6,
          "texCoord": 0
        }
      },
      "alphaMode": "BLEND",
      "doubleSided": true
    },
    {
      "name": "BlendAmberMaterial",
      "pbrMetallicRoughness": {
        "baseColorFactor": [
          1.0,
          0.68,
          0.25,
          0.74
        ],
        "metallicFactor": 0.0,
        "roughnessFactor": 0.42,
        "baseColorTexture": {
          "index": 6,
          "texCoord": 0
        }
      },
      "alphaMode": "BLEND",
      "doubleSided": true
    }
  ],
  "textures": [
    {
      "name": "CheckerTexture",
      "sampler": 0,
      "source": 0
    },
    {
      "name": "MetallicRoughnessTexture",
      "sampler": 0,
      "source": 1
    },
    {
      "name": "OcclusionTexture",
      "sampler": 0,
      "source": 2
    },
    {
      "name": "EmissiveTexture",
      "sampler": 0,
      "source": 3
    },
    {
      "name": "NormalTexture",
      "sampler": 0,
      "source": 4
    },
    {
      "name": "CutoutStripeTexture",
      "sampler": 0,
      "source": 5
    },
    {
      "name": "BlendSoftPanelTexture",
      "sampler": 0,
      "source": 6
    }
  ],
  "samplers": [
    {
      "magFilter": 9729,
      "minFilter": 9987,
      "wrapS": 10497,
      "wrapT": 10497
    }
  ],
  "images": [
    {
      "name": "CheckerImage",
      "uri": "../../textures/checkerboard.png"
    },
    {
      "name": "MetallicRoughnessImage",
      "uri": "../../textures/metallic_roughness_mask.png"
    },
    {
      "name": "OcclusionImage",
      "uri": "../../textures/occlusion_mask.png"
    },
    {
      "name": "EmissiveImage",
      "uri": "../../textures/emissive_mask.png"
    },
    {
      "name": "NormalImage",
      "uri": "../../textures/normal_detail.png"
    },
    {
      "name": "CutoutStripeImage",
      "uri": "../../textures/alpha_cutout_stripes.png"
    },
    {
      "name": "BlendSoftPanelImage",
      "uri": "../../textures/alpha_blend_soft_panel.png"
    }
  ],
  "buffers": [
    {
      "uri": "scene.bin",
      "byteLength": 242
    }
  ],
  "bufferViews": [
    {
      "buffer": 0,
      "byteOffset": 0,
      "byteLength": 36,
      "target": 34962
    },
    {
      "buffer": 0,
      "byteOffset": 36,
      "byteLength": 36,
      "target": 34962
    },
    {
      "buffer": 0,
      "byteOffset": 72,
      "byteLength": 24,
      "target": 34962
    },
    {
      "buffer": 0,
      "byteOffset": 96,
      "byteLength": 48,
      "target": 34962
    },
    {
      "buffer": 0,
      "byteOffset": 144,
      "byteLength": 48,
      "target": 34962
    },
    {
      "buffer": 0,
      "byteOffset": 192,
      "byteLength": 32,
      "target": 34962
    },
    {
      "buffer": 0,
      "byteOffset": 224,
      "byteLength": 6,
      "target": 34963
    },
    {
      "buffer": 0,
      "byteOffset": 230,
      "byteLength": 12,
      "target": 34963
    }
  ],
  "accessors": [
    {
      "bufferView": 0,
      "componentType": 5126,
      "count": 3,
      "type": "VEC3",
      "min": [
        -0.35,
        -0.25,
        0.0
      ],
      "max": [
        0.35,
        0.4,
        0.0
      ]
    },
    {
      "bufferView": 1,
      "componentType": 5126,
      "count": 3,
      "type": "VEC3"
    },
    {
      "bufferView": 2,
      "componentType": 5126,
      "count": 3,
      "type": "VEC2"
    },
    {
      "bufferView": 3,
      "componentType": 5126,
      "count": 4,
      "type": "VEC3",
      "min": [
        -0.38,
        -0.45,
        0.0
      ],
      "max": [
        0.38,
        0.45,
        0.0
      ]
    },
    {
      "bufferView": 4,
      "componentType": 5126,
      "count": 4,
      "type": "VEC3"
    },
    {
      "bufferView": 5,
      "componentType": 5126,
      "count": 4,
      "type": "VEC2"
    },
    {
      "bufferView": 6,
      "componentType": 5123,
      "count": 3,
      "type": "SCALAR"
    },
    {
      "bufferView": 7,
      "componentType": 5123,
      "count": 6,
      "type": "SCALAR"
    }
  ]
}
